<?xml version="1.0" encoding="UTF-8"?>
<svg xmlns="http://www.w3.org/2000/svg" style="display: none;">
  <!-- UI/UX Upgrade App Icons -->
  
  <!-- Modern Dashboard Icon -->
  <symbol id="icon-modern-dashboard" viewBox="0 0 24 24">
    <path fill="currentColor" d="M3 3h6v6H3V3zm8 0h10v6H11V3zM3 11h6v10H3V11zm8 0h10v10H11V11z"/>
  </symbol>

  <!-- Theme Manager Icon -->
  <symbol id="icon-theme-manager" viewBox="0 0 24 24">
    <path fill="currentColor" d="M12 2C6.48 2 2 6.48 2 12s4.48 10 10 10c1.54 0 3-.32 4.24-.9c.44-.21.49-.84.08-1.14L12 16.5V12c0-.83.67-1.5 1.5-1.5H18c.83 0 1.5-.67 1.5-1.5c0-5.52-4.48-10-10-10z"/>
    <circle fill="currentColor" cx="6.5" cy="11.5" r="1.5"/>
    <circle fill="currentColor" cx="9.5" cy="7.5" r="1.5"/>
    <circle fill="currentColor" cx="14.5" cy="7.5" r="1.5"/>
    <circle fill="currentColor" cx="17.5" cy="11.5" r="1.5"/>
  </symbol>

  <!-- UI Settings Icon -->
  <symbol id="icon-ui-settings" viewBox="0 0 24 24">
    <path fill="currentColor" d="M19.14 12.94c.04-.3.06-.61.06-.94c0-.32-.02-.64-.07-.94l2.03-1.58c.18-.14.23-.41.12-.61l-1.92-3.32c-.12-.22-.37-.29-.59-.22l-2.39.96c-.5-.38-1.03-.7-1.62-.94l-.36-2.54c-.04-.24-.24-.41-.48-.41h-3.84c-.24 0-.43.17-.47.41l-.36 2.54c-.59.24-1.13.57-1.62.94l-2.39-.96c-.22-.08-.47 0-.59.22L2.74 8.87c-.12.21-.08.47.12.61l2.03 1.58c-.05.3-.09.63-.09.94s.02.64.07.94l-2.03 1.58c-.18.14-.23.41-.12.61l1.92 3.32c.12.22.37.29.59.22l2.39-.96c.5.38 1.03.7 1.62.94l.36 2.54c.05.24.24.41.48.41h3.84c.24 0 .44-.17.47-.41l.36-2.54c.59-.24 1.13-.56 1.62-.94l2.39.96c.22.08.47 0 .59-.22l1.92-3.32c.12-.22.07-.47-.12-.61l-2.01-1.58zM12 15.6c-1.98 0-3.6-1.62-3.6-3.6s1.62-3.6 3.6-3.6s3.6 1.62 3.6 3.6s-1.62 3.6-3.6 3.6z"/>
  </symbol>

  <!-- Modern UI Icon -->
  <symbol id="icon-modern-ui" viewBox="0 0 24 24">
    <path fill="currentColor" d="M4 2h16c1.1 0 2 .9 2 2v16c0 1.1-.9 2-2 2H4c-1.1 0-2-.9-2-2V4c0-1.1.9-2 2-2zm0 2v4h16V4H4zm0 6v10h16V10H4z"/>
    <path fill="currentColor" d="M6 12h4v2H6v-2zm0 3h8v2H6v-2zm0 3h6v2H6v-2z"/>
  </symbol>

  <!-- Animation Icon -->
  <symbol id="icon-animation" viewBox="0 0 24 24">
    <path fill="currentColor" d="M4 2C2.89 2 2 2.89 2 4v16c0 1.11.89 2 2 2h16c1.11 0 2-.89 2-2V4c0-1.11-.89-2-2-2H4zm0 2h16v16H4V4zm2 2v12l9-6-9-6z"/>
  </symbol>

  <!-- Glassmorphism Icon -->
  <symbol id="icon-glassmorphism" viewBox="0 0 24 24">
    <path fill="currentColor" d="M12 2l3.09 6.26L22 9.27l-5 4.87 1.18 6.88L12 17.77l-6.18 3.25L7 14.14 2 9.27l6.91-1.01L12 2z" opacity="0.3"/>
    <path fill="currentColor" d="M12 2l3.09 6.26L22 9.27l-5 4.87 1.18 6.88L12 17.77l-6.18 3.25L7 14.14 2 9.27l6.91-1.01L12 2z" opacity="0.6"/>
  </symbol>

  <!-- Shadow Icon -->
  <symbol id="icon-shadow" viewBox="0 0 24 24">
    <path fill="currentColor" d="M12 2C6.48 2 2 6.48 2 12s4.48 10 10 10 10-4.48 10-10S17.52 2 12 2zm-2 15l-5-5 1.41-1.41L10 14.17l7.59-7.59L19 8l-9 9z"/>
    <ellipse fill="currentColor" cx="12" cy="20" rx="8" ry="2" opacity="0.3"/>
  </symbol>

  <!-- Modern Card Icon -->
  <symbol id="icon-modern-card" viewBox="0 0 24 24">
    <path fill="currentColor" d="M21 5H3c-1.1 0-2 .9-2 2v10c0 1.1.9 2 2 2h18c1.1 0 2-.9 2-2V7c0-1.1-.9-2-2-2zm0 12H3V7h18v10z"/>
    <path fill="currentColor" d="M5 9h4v6H5V9zm6 0h8v2h-8V9zm0 3h6v2h-6v-2z"/>
  </symbol>

  <!-- Responsive Icon -->
  <symbol id="icon-responsive" viewBox="0 0 24 24">
    <path fill="currentColor" d="M17 1H7c-1.1 0-2 .9-2 2v18c0 1.1.9 2 2 2h10c1.1 0 2-.9 2-2V3c0-1.1-.9-2-2-2zM7 4V3h10v1H7zm0 14V6h10v12H7zm0 3v-1h10v1H7z"/>
    <rect fill="currentColor" x="3" y="1" width="4" height="3" rx="0.5"/>
    <rect fill="currentColor" x="3" y="5" width="4" height="2" rx="0.25"/>
  </symbol>

  <!-- Dark Mode Icon -->
  <symbol id="icon-dark-mode" viewBox="0 0 24 24">
    <path fill="currentColor" d="M12 3c-4.97 0-9 4.03-9 9s4.03 9 9 9c.83 0 1.5-.67 1.5-1.5 0-.39-.15-.74-.39-1.01-.23-.26-.38-.61-.38-.99 0-.83.67-1.5 1.5-1.5H16c2.76 0 5-2.24 5-5 0-4.42-4.03-8-9-8z"/>
    <circle fill="currentColor" cx="6.5" cy="11.5" r="1.5"/>
    <circle fill="currentColor" cx="9.5" cy="7.5" r="1.5"/>
    <circle fill="currentColor" cx="14.5" cy="7.5" r="1.5"/>
    <circle fill="currentColor" cx="17.5" cy="11.5" r="1.5"/>
  </symbol>

  <!-- Loading Spinner Icon -->
  <symbol id="icon-loading" viewBox="0 0 24 24">
    <path fill="currentColor" d="M12,4V2A10,10 0 0,0 2,12H4A8,8 0 0,1 12,4Z">
      <animateTransform attributeName="transform" attributeType="XML" type="rotate" from="0 12 12" to="360 12 12" dur="1s" repeatCount="indefinite"/>
    </path>
  </symbol>

</svg>